<svg xmlns="http://www.w3.org/2000/svg" width="256" height="256" viewBox="0 0 100 100"><rect width="100" height="100" rx="20" fill="#ff00f0"></rect><path fill="#fff" d="M27.05 21.20L27.05 21.20Q37.13 17.78 47.93 17.78Q58.73 17.78 65.84 22.37Q72.95 26.96 72.95 36.41Q72.95 45.86 66.29 52.30Q59.63 58.73 50.27 58.73L50.27 58.73Q43.43 58.73 43.43 53.51L43.43 53.51Q43.43 51.89 44.06 50.09L44.06 50.09Q46.49 50.72 48.47 50.72L48.47 50.72Q54.68 50.72 57.88 47.30Q61.07 43.88 61.07 37.80Q61.07 31.73 57.65 28.76Q54.23 25.79 48.11 25.79L48.11 25.79Q44.96 25.79 40.46 26.87L40.46 26.87Q39.74 37.94 39.74 46.49L39.74 46.49Q39.74 70.43 41.63 81.14L41.63 81.14Q38.75 82.22 35.51 82.22Q32.27 82.22 29.89 80.15Q27.50 78.08 27.50 74.66Q27.50 71.24 28.40 62.73Q29.30 54.23 29.30 49.10L29.30 49.10Q29.30 33.44 27.05 21.20Z"></path></svg>